<svg id="visual" viewBox="0 0 900 600" width="900" height="600" xmlns="http://www.w3.org/2000/svg" xmlns:xlink="http://www.w3.org/1999/xlink" version="1.1"><g stroke-width="1" stroke-linejoin="bevel"><path d="M426 281L418 254L344.4 290Z" fill="#9e9c8e" stroke="#FFFFFF"></path><path d="M344.4 290L354.4 330L426 281Z" fill="#c5c3b5" stroke="#FFFFFF"></path><path d="M344.4 290L339.4 334L354.4 330Z" fill="#9e9c8e" stroke="#FFFFFF"></path><path d="M418 254L346.7 214L344.4 290Z" fill="#8b897c" stroke="#FFFFFF"></path><path d="M344.4 290L279.1 332L339.4 334Z" fill="#eeebdd" stroke="#FFFFFF"></path><path d="M339.4 334L350.7 347L354.4 330Z" fill="#eeebdd" stroke="#FFFFFF"></path><path d="M354.4 330L412.7 392L426 281Z" fill="#b1afa1" stroke="#FFFFFF"></path><path d="M493 168L424.7 198L418 254Z" fill="#d9d7c9" stroke="#FFFFFF"></path><path d="M418 254L424.7 198L346.7 214Z" fill="#8b897c" stroke="#FFFFFF"></path><path d="M296.1 206L271.1 288L344.4 290Z" fill="#cfcdbf" stroke="#FFFFFF"></path><path d="M339.4 334L342.7 408L350.7 347Z" fill="#c5c3b5" stroke="#FFFFFF"></path><path d="M295.1 197L296.1 206L346.7 214Z" fill="#cfcdbf" stroke="#FFFFFF"></path><path d="M346.7 214L296.1 206L344.4 290Z" fill="#d9d7c9" stroke="#FFFFFF"></path><path d="M350.7 347L412.7 392L354.4 330Z" fill="#cfcdbf" stroke="#FFFFFF"></path><path d="M271.1 288L279.1 332L344.4 290Z" fill="#cfcdbf" stroke="#FFFFFF"></path><path d="M350.7 347L342.7 408L412.7 392Z" fill="#a7a598" stroke="#FFFFFF"></path><path d="M291.4 178L295.1 197L346.7 214Z" fill="#a7a598" stroke="#FFFFFF"></path><path d="M296.1 206L219.9 270L271.1 288Z" fill="#8b897c" stroke="#FFFFFF"></path><path d="M424.7 198L384.7 145L346.7 214Z" fill="#a7a598" stroke="#FFFFFF"></path><path d="M279.1 332L342.7 408L339.4 334Z" fill="#d9d7c9" stroke="#FFFFFF"></path><path d="M384.7 145L291.4 178L346.7 214Z" fill="#9e9c8e" stroke="#FFFFFF"></path><path d="M231.9 197L219.9 270L296.1 206Z" fill="#eeebdd" stroke="#FFFFFF"></path><path d="M493 168L431 140L424.7 198Z" fill="#c5c3b5" stroke="#FFFFFF"></path><path d="M424.7 198L431 140L384.7 145Z" fill="#b1afa1" stroke="#FFFFFF"></path><path d="M443 456L499 376L412.7 392Z" fill="#eeebdd" stroke="#FFFFFF"></path><path d="M412.7 392L499 376L426 281Z" fill="#e4e1d3" stroke="#FFFFFF"></path><path d="M426 281L538.6 267L418 254Z" fill="#bbb9ab" stroke="#FFFFFF"></path><path d="M499 376L515.3 354L426 281Z" fill="#a7a598" stroke="#FFFFFF"></path><path d="M515.3 354L538.6 267L426 281Z" fill="#bbb9ab" stroke="#FFFFFF"></path><path d="M538.6 267L493 168L418 254Z" fill="#9e9c8e" stroke="#FFFFFF"></path><path d="M231.9 197L296.1 206L295.1 197Z" fill="#cfcdbf" stroke="#FFFFFF"></path><path d="M271.1 288L219.9 270L279.1 332Z" fill="#949285" stroke="#FFFFFF"></path><path d="M273.1 476L342.4 445L342.7 408Z" fill="#cfcdbf" stroke="#FFFFFF"></path><path d="M384.7 145L281.4 145L291.4 178Z" fill="#e4e1d3" stroke="#FFFFFF"></path><path d="M291.4 178L231.9 197L295.1 197Z" fill="#9e9c8e" stroke="#FFFFFF"></path><path d="M385.7 27L281.4 145L384.7 145Z" fill="#eeebdd" stroke="#FFFFFF"></path><path d="M234.9 384L342.7 408L279.1 332Z" fill="#e4e1d3" stroke="#FFFFFF"></path><path d="M342.7 408L342.4 445L412.7 392Z" fill="#9e9c8e" stroke="#FFFFFF"></path><path d="M515.3 354L555.3 259L538.6 267Z" fill="#d9d7c9" stroke="#FFFFFF"></path><path d="M538.6 267L532.3 172L493 168Z" fill="#d9d7c9" stroke="#FFFFFF"></path><path d="M281.4 145L231.9 197L291.4 178Z" fill="#a7a598" stroke="#FFFFFF"></path><path d="M490.3 94L425 110L431 140Z" fill="#a7a598" stroke="#FFFFFF"></path><path d="M431 140L425 110L384.7 145Z" fill="#cfcdbf" stroke="#FFFFFF"></path><path d="M589.9 236L562.3 245L555.3 259Z" fill="#d9d7c9" stroke="#FFFFFF"></path><path d="M555.3 259L562.3 245L538.6 267Z" fill="#b1afa1" stroke="#FFFFFF"></path><path d="M562.3 245L532.3 172L538.6 267Z" fill="#8b897c" stroke="#FFFFFF"></path><path d="M493 168L502.3 124L431 140Z" fill="#b1afa1" stroke="#FFFFFF"></path><path d="M169.6 352L234.9 384L279.1 332Z" fill="#949285" stroke="#FFFFFF"></path><path d="M434.7 465L443 456L412.7 392Z" fill="#949285" stroke="#FFFFFF"></path><path d="M499 376L553.3 399L515.3 354Z" fill="#8b897c" stroke="#FFFFFF"></path><path d="M342.4 445L434.7 465L412.7 392Z" fill="#e4e1d3" stroke="#FFFFFF"></path><path d="M532.3 172L502.3 124L493 168Z" fill="#eeebdd" stroke="#FFFFFF"></path><path d="M443 456L553.3 399L499 376Z" fill="#bbb9ab" stroke="#FFFFFF"></path><path d="M515.3 354L658.1 357L555.3 259Z" fill="#d9d7c9" stroke="#FFFFFF"></path><path d="M563.6 410L553.3 399L443 456Z" fill="#a7a598" stroke="#FFFFFF"></path><path d="M562.3 245L600.6 201L532.3 172Z" fill="#b1afa1" stroke="#FFFFFF"></path><path d="M528.6 77L490.3 94L502.3 124Z" fill="#949285" stroke="#FFFFFF"></path><path d="M671.9 317L589.9 236L555.3 259Z" fill="#8b897c" stroke="#FFFFFF"></path><path d="M528.6 77L502.3 124L540.6 79Z" fill="#9e9c8e" stroke="#FFFFFF"></path><path d="M502.3 124L490.3 94L431 140Z" fill="#a7a598" stroke="#FFFFFF"></path><path d="M216.1 117L204.9 153L281.4 145Z" fill="#cfcdbf" stroke="#FFFFFF"></path><path d="M231.9 197L170.6 254L219.9 270Z" fill="#b1afa1" stroke="#FFFFFF"></path><path d="M219.9 270L169.6 352L279.1 332Z" fill="#a7a598" stroke="#FFFFFF"></path><path d="M156.9 166L170.6 254L231.9 197Z" fill="#c5c3b5" stroke="#FFFFFF"></path><path d="M216.1 117L281.4 145L243.1 44Z" fill="#cfcdbf" stroke="#FFFFFF"></path><path d="M281.4 145L204.9 153L231.9 197Z" fill="#bbb9ab" stroke="#FFFFFF"></path><path d="M579.6 417L563.6 410L556.3 532Z" fill="#cfcdbf" stroke="#FFFFFF"></path><path d="M553.3 399L658.1 357L515.3 354Z" fill="#cfcdbf" stroke="#FFFFFF"></path><path d="M671.9 317L600.6 217L589.9 236Z" fill="#949285" stroke="#FFFFFF"></path><path d="M589.9 236L600.6 217L562.3 245Z" fill="#b1afa1" stroke="#FFFFFF"></path><path d="M296.4 489L357.4 503L342.4 445Z" fill="#a7a598" stroke="#FFFFFF"></path><path d="M342.4 445L357.4 503L434.7 465Z" fill="#e4e1d3" stroke="#FFFFFF"></path><path d="M556.3 532L563.6 410L443 456Z" fill="#eeebdd" stroke="#FFFFFF"></path><path d="M234.9 384L273.1 476L342.7 408Z" fill="#d9d7c9" stroke="#FFFFFF"></path><path d="M209.9 451L273.1 476L234.9 384Z" fill="#c5c3b5" stroke="#FFFFFF"></path><path d="M170.6 254L169.6 352L219.9 270Z" fill="#a7a598" stroke="#FFFFFF"></path><path d="M273.1 476L296.4 489L342.4 445Z" fill="#a7a598" stroke="#FFFFFF"></path><path d="M600.6 217L600.6 201L562.3 245Z" fill="#bbb9ab" stroke="#FFFFFF"></path><path d="M385.7 27L384.7 145L425 110Z" fill="#a7a598" stroke="#FFFFFF"></path><path d="M204.9 153L156.9 166L231.9 197Z" fill="#8b897c" stroke="#FFFFFF"></path><path d="M464.3 560L443 456L434.7 465Z" fill="#8b897c" stroke="#FFFFFF"></path><path d="M563.6 410L579.6 417L553.3 399Z" fill="#8b897c" stroke="#FFFFFF"></path><path d="M191.9 438L209.9 451L234.9 384Z" fill="#8b897c" stroke="#FFFFFF"></path><path d="M273.1 476L235.1 551L296.4 489Z" fill="#cfcdbf" stroke="#FFFFFF"></path><path d="M540.6 79L502.3 124L532.3 172Z" fill="#9e9c8e" stroke="#FFFFFF"></path><path d="M480 0L385.7 27L425 110Z" fill="#8b897c" stroke="#FFFFFF"></path><path d="M169.6 352L191.9 438L234.9 384Z" fill="#b1afa1" stroke="#FFFFFF"></path><path d="M401.7 0L385.7 27L480 0Z" fill="#9e9c8e" stroke="#FFFFFF"></path><path d="M191.9 438L211.1 463L209.9 451Z" fill="#b1afa1" stroke="#FFFFFF"></path><path d="M209.9 451L211.1 463L273.1 476Z" fill="#d9d7c9" stroke="#FFFFFF"></path><path d="M608.9 150L540.6 79L532.3 172Z" fill="#eeebdd" stroke="#FFFFFF"></path><path d="M480 0L425 110L490.3 94Z" fill="#9e9c8e" stroke="#FFFFFF"></path><path d="M363.7 565L419 530L357.4 503Z" fill="#9e9c8e" stroke="#FFFFFF"></path><path d="M357.4 503L419 530L434.7 465Z" fill="#949285" stroke="#FFFFFF"></path><path d="M363.7 565L357.4 503L296.4 489Z" fill="#eeebdd" stroke="#FFFFFF"></path><path d="M168.6 134L156.9 166L204.9 153Z" fill="#8b897c" stroke="#FFFFFF"></path><path d="M170.6 254L126.6 338L169.6 352Z" fill="#9e9c8e" stroke="#FFFFFF"></path><path d="M682.9 161L608.9 150L600.6 201Z" fill="#eeebdd" stroke="#FFFFFF"></path><path d="M600.6 201L608.9 150L532.3 172Z" fill="#a7a598" stroke="#FFFFFF"></path><path d="M693.1 200L600.6 201L600.6 217Z" fill="#cfcdbf" stroke="#FFFFFF"></path><path d="M154.9 104L168.6 134L216.1 117Z" fill="#c5c3b5" stroke="#FFFFFF"></path><path d="M216.1 117L168.6 134L204.9 153Z" fill="#b1afa1" stroke="#FFFFFF"></path><path d="M46.3 292L126.6 338L170.6 254Z" fill="#d9d7c9" stroke="#FFFFFF"></path><path d="M169.6 352L87.6 378L191.9 438Z" fill="#e4e1d3" stroke="#FFFFFF"></path><path d="M385.7 27L272.4 32L281.4 145Z" fill="#b1afa1" stroke="#FFFFFF"></path><path d="M272.4 32L243.1 44L281.4 145Z" fill="#cfcdbf" stroke="#FFFFFF"></path><path d="M480 0L490.3 94L528.6 77Z" fill="#cfcdbf" stroke="#FFFFFF"></path><path d="M385.7 27L356.4 0L272.4 32Z" fill="#d9d7c9" stroke="#FFFFFF"></path><path d="M401.7 0L356.4 0L385.7 27Z" fill="#c5c3b5" stroke="#FFFFFF"></path><path d="M579.6 417L658.1 357L553.3 399Z" fill="#8b897c" stroke="#FFFFFF"></path><path d="M269.4 600L363.7 565L296.4 489Z" fill="#9e9c8e" stroke="#FFFFFF"></path><path d="M168.6 134L154.9 104L156.9 166Z" fill="#cfcdbf" stroke="#FFFFFF"></path><path d="M156.9 166L85.6 192L170.6 254Z" fill="#949285" stroke="#FFFFFF"></path><path d="M164.6 48L154.9 104L216.1 117Z" fill="#8b897c" stroke="#FFFFFF"></path><path d="M658.1 357L671.9 317L555.3 259Z" fill="#cfcdbf" stroke="#FFFFFF"></path><path d="M445 566L464.3 560L419 530Z" fill="#bbb9ab" stroke="#FFFFFF"></path><path d="M419 530L464.3 560L434.7 465Z" fill="#e4e1d3" stroke="#FFFFFF"></path><path d="M579.6 417L672.9 403L658.1 357Z" fill="#a7a598" stroke="#FFFFFF"></path><path d="M388.7 600L445 566L419 530Z" fill="#bbb9ab" stroke="#FFFFFF"></path><path d="M536.3 0L528.6 77L540.6 79Z" fill="#a7a598" stroke="#FFFFFF"></path><path d="M536.3 0L480 0L528.6 77Z" fill="#a7a598" stroke="#FFFFFF"></path><path d="M525.3 600L556.3 532L464.3 560Z" fill="#c5c3b5" stroke="#FFFFFF"></path><path d="M464.3 560L556.3 532L443 456Z" fill="#8b897c" stroke="#FFFFFF"></path><path d="M171.9 566L235.1 551L211.1 463Z" fill="#bbb9ab" stroke="#FFFFFF"></path><path d="M211.1 463L235.1 551L273.1 476Z" fill="#eeebdd" stroke="#FFFFFF"></path><path d="M229.1 600L235.1 551L171.9 566Z" fill="#9e9c8e" stroke="#FFFFFF"></path><path d="M154.9 104L85.6 192L156.9 166Z" fill="#e4e1d3" stroke="#FFFFFF"></path><path d="M46.3 292L87.6 378L126.6 338Z" fill="#a7a598" stroke="#FFFFFF"></path><path d="M126.6 338L87.6 378L169.6 352Z" fill="#bbb9ab" stroke="#FFFFFF"></path><path d="M618.9 497L672.9 403L579.6 417Z" fill="#d9d7c9" stroke="#FFFFFF"></path><path d="M658.1 357L697.1 323L671.9 317Z" fill="#cfcdbf" stroke="#FFFFFF"></path><path d="M684.9 408L697.1 323L658.1 357Z" fill="#949285" stroke="#FFFFFF"></path><path d="M671.9 317L693.1 200L600.6 217Z" fill="#c5c3b5" stroke="#FFFFFF"></path><path d="M546.6 0L536.3 0L540.6 79Z" fill="#9e9c8e" stroke="#FFFFFF"></path><path d="M546.6 0L540.6 79L667.9 41Z" fill="#d9d7c9" stroke="#FFFFFF"></path><path d="M697.1 323L693.1 200L671.9 317Z" fill="#e4e1d3" stroke="#FFFFFF"></path><path d="M243.1 44L164.6 48L216.1 117Z" fill="#b1afa1" stroke="#FFFFFF"></path><path d="M33.3 118L20.3 177L85.6 192Z" fill="#949285" stroke="#FFFFFF"></path><path d="M206.1 0L164.6 48L243.1 44Z" fill="#bbb9ab" stroke="#FFFFFF"></path><path d="M206.1 0L243.1 44L272.4 32Z" fill="#8b897c" stroke="#FFFFFF"></path><path d="M556.3 532L618.9 497L579.6 417Z" fill="#a7a598" stroke="#FFFFFF"></path><path d="M693.1 200L682.9 161L600.6 201Z" fill="#949285" stroke="#FFFFFF"></path><path d="M363.7 565L388.7 600L419 530Z" fill="#eeebdd" stroke="#FFFFFF"></path><path d="M445 566L459 600L464.3 560Z" fill="#9e9c8e" stroke="#FFFFFF"></path><path d="M269.4 600L388.7 600L363.7 565Z" fill="#8b897c" stroke="#FFFFFF"></path><path d="M667.9 41L540.6 79L608.9 150Z" fill="#bbb9ab" stroke="#FFFFFF"></path><path d="M694.1 429L684.9 408L672.9 403Z" fill="#9e9c8e" stroke="#FFFFFF"></path><path d="M672.9 403L684.9 408L658.1 357Z" fill="#bbb9ab" stroke="#FFFFFF"></path><path d="M388.7 600L459 600L445 566Z" fill="#949285" stroke="#FFFFFF"></path><path d="M556.3 532L607.6 528L618.9 497Z" fill="#eeebdd" stroke="#FFFFFF"></path><path d="M356.4 0L206.1 0L272.4 32Z" fill="#cfcdbf" stroke="#FFFFFF"></path><path d="M607.6 531L607.6 528L556.3 532Z" fill="#d9d7c9" stroke="#FFFFFF"></path><path d="M618.9 497L694.1 429L672.9 403Z" fill="#949285" stroke="#FFFFFF"></path><path d="M538.6 600L607.6 531L556.3 532Z" fill="#b1afa1" stroke="#FFFFFF"></path><path d="M607.6 528L632.9 549L618.9 497Z" fill="#d9d7c9" stroke="#FFFFFF"></path><path d="M85.6 192L46.3 292L170.6 254Z" fill="#9e9c8e" stroke="#FFFFFF"></path><path d="M229.1 600L269.4 600L235.1 551Z" fill="#a7a598" stroke="#FFFFFF"></path><path d="M235.1 551L269.4 600L296.4 489Z" fill="#c5c3b5" stroke="#FFFFFF"></path><path d="M698.1 508L694.1 429L618.9 497Z" fill="#bbb9ab" stroke="#FFFFFF"></path><path d="M684.9 408L741.4 337L697.1 323Z" fill="#bbb9ab" stroke="#FFFFFF"></path><path d="M459 600L525.3 600L464.3 560Z" fill="#a7a598" stroke="#FFFFFF"></path><path d="M693.1 200L728.1 194L682.9 161Z" fill="#d9d7c9" stroke="#FFFFFF"></path><path d="M702.1 68L667.9 41L608.9 150Z" fill="#b1afa1" stroke="#FFFFFF"></path><path d="M769.4 268L728.1 194L693.1 200Z" fill="#c5c3b5" stroke="#FFFFFF"></path><path d="M769.4 268L693.1 200L697.1 323Z" fill="#eeebdd" stroke="#FFFFFF"></path><path d="M525.3 600L538.6 600L556.3 532Z" fill="#bbb9ab" stroke="#FFFFFF"></path><path d="M171.9 566L211.1 463L108.6 524Z" fill="#c5c3b5" stroke="#FFFFFF"></path><path d="M46.3 292L36.3 358L87.6 378Z" fill="#9e9c8e" stroke="#FFFFFF"></path><path d="M105.3 513L211.1 463L191.9 438Z" fill="#bbb9ab" stroke="#FFFFFF"></path><path d="M105.3 513L191.9 438L67.3 464Z" fill="#eeebdd" stroke="#FFFFFF"></path><path d="M0 225L25.3 258L85.6 192Z" fill="#bbb9ab" stroke="#FFFFFF"></path><path d="M85.6 192L25.3 258L46.3 292Z" fill="#8b897c" stroke="#FFFFFF"></path><path d="M46.3 292L0 326L36.3 358Z" fill="#b1afa1" stroke="#FFFFFF"></path><path d="M694.1 429L741.4 337L684.9 408Z" fill="#cfcdbf" stroke="#FFFFFF"></path><path d="M67.3 464L191.9 438L87.6 378Z" fill="#d9d7c9" stroke="#FFFFFF"></path><path d="M538.6 600L632.9 549L607.6 531Z" fill="#8b897c" stroke="#FFFFFF"></path><path d="M607.6 531L632.9 549L607.6 528Z" fill="#a7a598" stroke="#FFFFFF"></path><path d="M774.4 468L787.7 341L741.4 337Z" fill="#e4e1d3" stroke="#FFFFFF"></path><path d="M0 429L67.3 464L87.6 378Z" fill="#bbb9ab" stroke="#FFFFFF"></path><path d="M206.1 0L143.6 0L164.6 48Z" fill="#9e9c8e" stroke="#FFFFFF"></path><path d="M67.3 12L33.3 118L154.9 104Z" fill="#9e9c8e" stroke="#FFFFFF"></path><path d="M0 552L108.6 524L105.3 513Z" fill="#d9d7c9" stroke="#FFFFFF"></path><path d="M105.3 513L108.6 524L211.1 463Z" fill="#c5c3b5" stroke="#FFFFFF"></path><path d="M143.6 0L141.9 0L164.6 48Z" fill="#bbb9ab" stroke="#FFFFFF"></path><path d="M702.1 68L608.9 150L682.9 161Z" fill="#c5c3b5" stroke="#FFFFFF"></path><path d="M33.3 118L85.6 192L154.9 104Z" fill="#b1afa1" stroke="#FFFFFF"></path><path d="M0 456L60.3 474L67.3 464Z" fill="#8b897c" stroke="#FFFFFF"></path><path d="M67.3 464L60.3 474L105.3 513Z" fill="#d9d7c9" stroke="#FFFFFF"></path><path d="M727.1 79L702.1 68L682.9 161Z" fill="#d9d7c9" stroke="#FFFFFF"></path><path d="M741.4 337L769.4 268L697.1 323Z" fill="#eeebdd" stroke="#FFFFFF"></path><path d="M758.4 144L727.1 79L682.9 161Z" fill="#949285" stroke="#FFFFFF"></path><path d="M67.3 12L154.9 104L164.6 48Z" fill="#b1afa1" stroke="#FFFFFF"></path><path d="M25.3 258L0 326L46.3 292Z" fill="#e4e1d3" stroke="#FFFFFF"></path><path d="M36.3 358L0 429L87.6 378Z" fill="#cfcdbf" stroke="#FFFFFF"></path><path d="M0 225L0 326L25.3 258Z" fill="#e4e1d3" stroke="#FFFFFF"></path><path d="M0 200L0 225L20.3 177Z" fill="#9e9c8e" stroke="#FFFFFF"></path><path d="M20.3 177L0 225L85.6 192Z" fill="#8b897c" stroke="#FFFFFF"></path><path d="M632.9 549L698.1 508L618.9 497Z" fill="#e4e1d3" stroke="#FFFFFF"></path><path d="M741.4 337L787.7 341L769.4 268Z" fill="#949285" stroke="#FFFFFF"></path><path d="M769.4 268L774.4 251L728.1 194Z" fill="#8b897c" stroke="#FFFFFF"></path><path d="M0 115L0 200L20.3 177Z" fill="#8b897c" stroke="#FFFFFF"></path><path d="M758.4 144L682.9 161L728.1 194Z" fill="#a7a598" stroke="#FFFFFF"></path><path d="M702.1 68L678.9 0L667.9 41Z" fill="#bbb9ab" stroke="#FFFFFF"></path><path d="M0 326L0 377L36.3 358Z" fill="#e4e1d3" stroke="#FFFFFF"></path><path d="M789.7 169L758.4 144L728.1 194Z" fill="#eeebdd" stroke="#FFFFFF"></path><path d="M87.6 600L108.6 524L0 552Z" fill="#bbb9ab" stroke="#FFFFFF"></path><path d="M87.6 600L119.6 575L108.6 524Z" fill="#b1afa1" stroke="#FFFFFF"></path><path d="M108.6 524L119.6 575L171.9 566Z" fill="#c5c3b5" stroke="#FFFFFF"></path><path d="M171.9 566L146.9 600L229.1 600Z" fill="#949285" stroke="#FFFFFF"></path><path d="M698.1 508L725.1 486L694.1 429Z" fill="#9e9c8e" stroke="#FFFFFF"></path><path d="M769.4 268L900 271L774.4 251Z" fill="#eeebdd" stroke="#FFFFFF"></path><path d="M119.6 575L146.9 600L171.9 566Z" fill="#8b897c" stroke="#FFFFFF"></path><path d="M141.9 0L95.3 0L164.6 48Z" fill="#a7a598" stroke="#FFFFFF"></path><path d="M667.9 41L678.9 0L546.6 0Z" fill="#eeebdd" stroke="#FFFFFF"></path><path d="M750.1 0L678.9 0L702.1 68Z" fill="#c5c3b5" stroke="#FFFFFF"></path><path d="M774.4 468L741.4 337L694.1 429Z" fill="#e4e1d3" stroke="#FFFFFF"></path><path d="M0 377L0 429L36.3 358Z" fill="#9e9c8e" stroke="#FFFFFF"></path><path d="M758.4 144L763.4 112L727.1 79Z" fill="#d9d7c9" stroke="#FFFFFF"></path><path d="M727.1 79L750.1 0L702.1 68Z" fill="#a7a598" stroke="#FFFFFF"></path><path d="M812.7 112L763.4 112L758.4 144Z" fill="#949285" stroke="#FFFFFF"></path><path d="M789.7 169L728.1 194L774.4 251Z" fill="#8b897c" stroke="#FFFFFF"></path><path d="M95.3 0L67.3 12L164.6 48Z" fill="#b1afa1" stroke="#FFFFFF"></path><path d="M33.3 118L0 115L20.3 177Z" fill="#a7a598" stroke="#FFFFFF"></path><path d="M698.1 508L724.4 519L725.1 486Z" fill="#d9d7c9" stroke="#FFFFFF"></path><path d="M725.1 486L774.4 468L694.1 429Z" fill="#e4e1d3" stroke="#FFFFFF"></path><path d="M658.9 600L724.4 519L698.1 508Z" fill="#b1afa1" stroke="#FFFFFF"></path><path d="M658.9 600L698.1 508L632.9 549Z" fill="#a7a598" stroke="#FFFFFF"></path><path d="M0 59L0 115L33.3 118Z" fill="#bbb9ab" stroke="#FFFFFF"></path><path d="M875.7 192L789.7 169L774.4 251Z" fill="#c5c3b5" stroke="#FFFFFF"></path><path d="M538.6 600L658.9 600L632.9 549Z" fill="#c5c3b5" stroke="#FFFFFF"></path><path d="M0 429L0 456L67.3 464Z" fill="#9e9c8e" stroke="#FFFFFF"></path><path d="M792.7 487L725.1 486L724.4 519Z" fill="#8b897c" stroke="#FFFFFF"></path><path d="M792.7 487L774.4 468L725.1 486Z" fill="#e4e1d3" stroke="#FFFFFF"></path><path d="M0 552L105.3 513L60.3 474Z" fill="#e4e1d3" stroke="#FFFFFF"></path><path d="M119.6 575L87.6 600L146.9 600Z" fill="#949285" stroke="#FFFFFF"></path><path d="M67.3 12L0 59L33.3 118Z" fill="#bbb9ab" stroke="#FFFFFF"></path><path d="M804.4 518L792.7 487L724.4 519Z" fill="#9e9c8e" stroke="#FFFFFF"></path><path d="M774.4 468L836.7 428L787.7 341Z" fill="#c5c3b5" stroke="#FFFFFF"></path><path d="M875.7 192L812.7 112L789.7 169Z" fill="#d9d7c9" stroke="#FFFFFF"></path><path d="M857.7 342L769.4 268L787.7 341Z" fill="#b1afa1" stroke="#FFFFFF"></path><path d="M789.7 169L812.7 112L758.4 144Z" fill="#eeebdd" stroke="#FFFFFF"></path><path d="M793.7 53L750.1 0L727.1 79Z" fill="#a7a598" stroke="#FFFFFF"></path><path d="M793.7 53L727.1 79L763.4 112Z" fill="#a7a598" stroke="#FFFFFF"></path><path d="M812.7 112L793.7 53L763.4 112Z" fill="#c5c3b5" stroke="#FFFFFF"></path><path d="M0 456L0 552L60.3 474Z" fill="#a7a598" stroke="#FFFFFF"></path><path d="M95.3 0L0 0L67.3 12Z" fill="#eeebdd" stroke="#FFFFFF"></path><path d="M67.3 12L0 0L0 59Z" fill="#9e9c8e" stroke="#FFFFFF"></path><path d="M658.9 600L734.1 600L724.4 519Z" fill="#d9d7c9" stroke="#FFFFFF"></path><path d="M864.7 526L836.7 428L792.7 487Z" fill="#b1afa1" stroke="#FFFFFF"></path><path d="M792.7 487L836.7 428L774.4 468Z" fill="#e4e1d3" stroke="#FFFFFF"></path><path d="M836.7 428L857.7 342L787.7 341Z" fill="#b1afa1" stroke="#FFFFFF"></path><path d="M793.7 53L775.4 0L750.1 0Z" fill="#e4e1d3" stroke="#FFFFFF"></path><path d="M0 552L27.3 600L87.6 600Z" fill="#8b897c" stroke="#FFFFFF"></path><path d="M782.7 600L804.4 518L724.4 519Z" fill="#bbb9ab" stroke="#FFFFFF"></path><path d="M812.7 112L818.4 41L793.7 53Z" fill="#d9d7c9" stroke="#FFFFFF"></path><path d="M793.7 53L818.4 41L775.4 0Z" fill="#eeebdd" stroke="#FFFFFF"></path><path d="M900 82L818.4 41L812.7 112Z" fill="#bbb9ab" stroke="#FFFFFF"></path><path d="M900 271L875.7 192L774.4 251Z" fill="#cfcdbf" stroke="#FFFFFF"></path><path d="M0 552L0 600L27.3 600Z" fill="#e4e1d3" stroke="#FFFFFF"></path><path d="M734.1 600L782.7 600L724.4 519Z" fill="#a7a598" stroke="#FFFFFF"></path><path d="M900 455L900 409L836.7 428Z" fill="#9e9c8e" stroke="#FFFFFF"></path><path d="M900 0L814.7 0L818.4 41Z" fill="#949285" stroke="#FFFFFF"></path><path d="M818.4 41L814.7 0L775.4 0Z" fill="#b1afa1" stroke="#FFFFFF"></path><path d="M857.7 342L900 271L769.4 268Z" fill="#cfcdbf" stroke="#FFFFFF"></path><path d="M900 291L900 271L857.7 342Z" fill="#d9d7c9" stroke="#FFFFFF"></path><path d="M900 291L857.7 342L900 409Z" fill="#949285" stroke="#FFFFFF"></path><path d="M900 409L857.7 342L836.7 428Z" fill="#cfcdbf" stroke="#FFFFFF"></path><path d="M900 271L900 201L875.7 192Z" fill="#9e9c8e" stroke="#FFFFFF"></path><path d="M875.7 192L900 82L812.7 112Z" fill="#8b897c" stroke="#FFFFFF"></path><path d="M864.7 526L792.7 487L804.4 518Z" fill="#eeebdd" stroke="#FFFFFF"></path><path d="M821.4 600L864.7 526L804.4 518Z" fill="#eeebdd" stroke="#FFFFFF"></path><path d="M782.7 600L821.4 600L804.4 518Z" fill="#cfcdbf" stroke="#FFFFFF"></path><path d="M900 472L900 455L836.7 428Z" fill="#cfcdbf" stroke="#FFFFFF"></path><path d="M900 527L900 472L864.7 526Z" fill="#e4e1d3" stroke="#FFFFFF"></path><path d="M864.7 526L900 472L836.7 428Z" fill="#9e9c8e" stroke="#FFFFFF"></path><path d="M900 201L900 82L875.7 192Z" fill="#a7a598" stroke="#FFFFFF"></path><path d="M900 82L900 34L818.4 41Z" fill="#a7a598" stroke="#FFFFFF"></path><path d="M900 600L900 527L864.7 526Z" fill="#b1afa1" stroke="#FFFFFF"></path><path d="M900 34L900 0L818.4 41Z" fill="#d9d7c9" stroke="#FFFFFF"></path><path d="M821.4 600L900 600L864.7 526Z" fill="#949285" stroke="#FFFFFF"></path></g></svg>